<svg xmlns="http://www.w3.org/2000/svg" xmlns:xlink="http://www.w3.org/1999/xlink" contentStyleType="text/css" data-diagram-type="DESCRIPTION" height="487px" preserveAspectRatio="none" style="width:758px;height:487px;background:#FFFFFF;" version="1.1" viewBox="0 0 758 487" width="758px" zoomAndPan="magnify"><defs/><g><!--entity discord--><g id="elem_discord"><rect fill="#F1F1F1" height="46.2969" rx="2.5" ry="2.5" style="stroke:#181818;stroke-width:0.5;" width="92.8691" x="7" y="289.92"/><rect fill="#F1F1F1" height="10" style="stroke:#181818;stroke-width:0.5;" width="15" x="79.8691" y="294.92"/><rect fill="#F1F1F1" height="2" style="stroke:#181818;stroke-width:0.5;" width="4" x="77.8691" y="296.92"/><rect fill="#F1F1F1" height="2" style="stroke:#181818;stroke-width:0.5;" width="4" x="77.8691" y="300.92"/><text fill="#000000" font-family="sans-serif" font-size="14" lengthAdjust="spacing" textLength="52.8691" x="22" y="322.9151">Discord</text></g><!--entity ifttt--><g id="elem_ifttt"><rect fill="#F1F1F1" height="46.2969" rx="2.5" ry="2.5" style="stroke:#181818;stroke-width:0.5;" width="77.8369" x="227.52" y="289.92"/><rect fill="#F1F1F1" height="10" style="stroke:#181818;stroke-width:0.5;" width="15" x="285.3569" y="294.92"/><rect fill="#F1F1F1" height="2" style="stroke:#181818;stroke-width:0.5;" width="4" x="283.3569" y="296.92"/><rect fill="#F1F1F1" height="2" style="stroke:#181818;stroke-width:0.5;" width="4" x="283.3569" y="300.92"/><text fill="#000000" font-family="sans-serif" font-size="14" lengthAdjust="spacing" textLength="37.8369" x="242.52" y="322.9151">IFTTT</text></g><!--entity archive--><g id="elem_archive"><rect fill="#F1F1F1" height="46.2969" rx="2.5" ry="2.5" style="stroke:#181818;stroke-width:0.5;" width="134.6912" x="446.09" y="289.92"/><rect fill="#F1F1F1" height="10" style="stroke:#181818;stroke-width:0.5;" width="15" x="560.7812" y="294.92"/><rect fill="#F1F1F1" height="2" style="stroke:#181818;stroke-width:0.5;" width="4" x="558.7812" y="296.92"/><rect fill="#F1F1F1" height="2" style="stroke:#181818;stroke-width:0.5;" width="4" x="558.7812" y="300.92"/><text fill="#000000" font-family="sans-serif" font-size="14" lengthAdjust="spacing" textLength="94.6912" x="461.09" y="322.9151">Archive&#12450;&#12503;&#12522;</text></g><!--entity db--><g id="elem_db"><path d="M470.03,435.33 C470.03,425.33 513.4304,425.33 513.4304,425.33 C513.4304,425.33 556.8308,425.33 556.8308,435.33 L556.8308,460.6269 C556.8308,470.6269 513.4304,470.6269 513.4304,470.6269 C513.4304,470.6269 470.03,470.6269 470.03,460.6269 L470.03,435.33 " fill="#F1F1F1" style="stroke:#181818;stroke-width:0.5;"/><path d="M470.03,435.33 C470.03,445.33 513.4304,445.33 513.4304,445.33 C513.4304,445.33 556.8308,445.33 556.8308,435.33 " fill="#FFFFFF" fill-opacity="0.00000" style="stroke:#181818;stroke-width:0.5;"/><text fill="#000000" font-family="sans-serif" font-size="14" lengthAdjust="spacing" textLength="66.8008" x="480.03" y="462.3251">Database</text></g><!--entity user--><g id="elem_user"><ellipse cx="510.4298" cy="14" fill="#F1F1F1" rx="8" ry="8" style="stroke:#181818;stroke-width:0.5;"/><path d="M510.4298,22 L510.4298,49 M497.4298,30 L523.4298,30 M510.4298,49 L497.4298,64 M510.4298,49 L523.4298,64 " fill="#FFFFFF" fill-opacity="0.00000" style="stroke:#181818;stroke-width:0.5;"/><text fill="#000000" font-family="sans-serif" font-size="14" lengthAdjust="spacing" textLength="83.9996" x="468.43" y="78.4951">&#19968;&#33324;&#12518;&#12540;&#12470;&#12540;</text></g><!--entity admin--><g id="elem_admin"><ellipse cx="617.4299" cy="14" fill="#F1F1F1" rx="8" ry="8" style="stroke:#181818;stroke-width:0.5;"/><path d="M617.4299,22 L617.4299,49 M604.4299,30 L630.4299,30 M617.4299,49 L604.4299,64 M617.4299,49 L630.4299,64 " fill="#FFFFFF" fill-opacity="0.00000" style="stroke:#181818;stroke-width:0.5;"/><text fill="#000000" font-family="sans-serif" font-size="14" lengthAdjust="spacing" textLength="41.9998" x="596.43" y="78.4951">&#31649;&#29702;&#32773;</text></g><!--entity webhook--><g id="elem_webhook"><ellipse cx="349.43" cy="313.07" fill="#F1F1F1" rx="8" ry="8" style="stroke:#181818;stroke-width:0.5;"/><text fill="#000000" font-family="sans-serif" font-size="14" lengthAdjust="spacing" textLength="92.0527" x="303.4036" y="343.0651">Webhook API</text></g><!--entity discord_api--><g id="elem_discord_api"><ellipse cx="393.43" cy="171.8" fill="#F1F1F1" rx="8" ry="8" style="stroke:#181818;stroke-width:0.5;"/><text fill="#000000" font-family="sans-serif" font-size="14" lengthAdjust="spacing" textLength="79.4678" x="353.6961" y="201.7951">Discord API</text></g><!--entity web_ui--><g id="elem_web_ui"><ellipse cx="510.43" cy="171.8" fill="#F1F1F1" rx="8" ry="8" style="stroke:#181818;stroke-width:0.5;"/><text fill="#000000" font-family="sans-serif" font-size="14" lengthAdjust="spacing" textLength="50.1689" x="485.3455" y="201.7951">Web UI</text></g><!--entity admin_ui--><g id="elem_admin_ui"><ellipse cx="617.43" cy="171.8" fill="#F1F1F1" rx="8" ry="8" style="stroke:#181818;stroke-width:0.5;"/><text fill="#000000" font-family="sans-serif" font-size="14" lengthAdjust="spacing" textLength="63.6904" x="585.5848" y="201.7951">Admin UI</text></g><g id="elem_GMN22"><path d="M615.55,277.8 L615.55,309.07 L581.17,313.07 L615.55,317.07 L615.55,348.3312 A0,0 0 0 0 615.55,348.3312 L751.3093,348.3312 A0,0 0 0 0 751.3093,348.3312 L751.3093,287.8 L741.3093,277.8 L615.55,277.8 A0,0 0 0 0 615.55,277.8 " fill="#FEFFDD" style="stroke:#181818;stroke-width:0.5;"/><path d="M741.3093,277.8 L741.3093,287.8 L751.3093,287.8 L741.3093,277.8 " fill="#FEFFDD" style="stroke:#181818;stroke-width:0.5;"/><text fill="#000000" font-family="sans-serif" font-size="13" lengthAdjust="spacing" textLength="114.7593" x="621.55" y="294.8669">- URL&#12363;&#12425;OGP&#25277;&#20986;</text><text fill="#000000" font-family="sans-serif" font-size="13" lengthAdjust="spacing" textLength="53.752" x="621.55" y="309.9997">- DB&#20445;&#23384;</text><text fill="#000000" font-family="sans-serif" font-size="13" lengthAdjust="spacing" textLength="83.916" x="621.55" y="325.1325">- Discord&#36890;&#30693;</text><text fill="#000000" font-family="sans-serif" font-size="13" lengthAdjust="spacing" textLength="99.8233" x="621.55" y="340.2653">- &#12450;&#12540;&#12459;&#12452;&#12502;&#31649;&#29702;</text></g><g id="elem_GMN25"><path d="M592.02,435.42 L592.02,443.98 L557.14,447.98 L592.02,451.98 L592.02,460.5528 A0,0 0 0 0 592.02,460.5528 L712.8433,460.5528 A0,0 0 0 0 712.8433,460.5528 L712.8433,445.42 L702.8433,435.42 L592.02,435.42 A0,0 0 0 0 592.02,435.42 " fill="#FEFFDD" style="stroke:#181818;stroke-width:0.5;"/><path d="M702.8433,435.42 L702.8433,445.42 L712.8433,445.42 L702.8433,435.42 " fill="#FEFFDD" style="stroke:#181818;stroke-width:0.5;"/><text fill="#000000" font-family="sans-serif" font-size="13" lengthAdjust="spacing" textLength="99.8233" x="598.02" y="452.4869">- &#12450;&#12540;&#12459;&#12452;&#12502;&#24773;&#22577;</text></g><!--link discord to ifttt--><g id="link_discord_ifttt"><path d="M100.18,313.07 C138.26,313.07 185.42,313.07 221.29,313.07 " fill="#FFFFFF" fill-opacity="0.00000" id="discord-to-ifttt" style="stroke:#181818;stroke-width:1;"/><polygon fill="#181818" points="227.29,313.07,218.29,309.07,222.29,313.07,218.29,317.07,227.29,313.07" style="stroke:#181818;stroke-width:1;"/><text fill="#000000" font-family="sans-serif" font-size="13" lengthAdjust="spacing" textLength="91.0001" x="118.19" y="306.1369">&#12513;&#12483;&#12475;&#12540;&#12472;&#30435;&#35222;</text></g><!--link ifttt to webhook--><g id="link_ifttt_webhook"><path d="M305.67,313.07 C317.18,313.07 322.69,313.07 334.2,313.07 " fill="#FFFFFF" fill-opacity="0.00000" id="ifttt-to-webhook" style="stroke:#181818;stroke-width:1;"/><polygon fill="#181818" points="340.2,313.07,331.2,309.07,335.2,313.07,331.2,317.07,340.2,313.07" style="stroke:#181818;stroke-width:1;"/></g><!--link webhook to archive--><g id="link_webhook_archive"><path d="M358.72,313.07 C375.53,313.07 406.35,313.07 439.86,313.07 " fill="#FFFFFF" fill-opacity="0.00000" id="webhook-to-archive" style="stroke:#181818;stroke-width:1;"/><polygon fill="#181818" points="445.86,313.07,436.86,309.07,440.86,313.07,436.86,317.07,445.86,313.07" style="stroke:#181818;stroke-width:1;"/><text fill="#000000" font-family="sans-serif" font-size="13" lengthAdjust="spacing" textLength="51.7906" x="376.76" y="306.1369">URL&#36890;&#30693;</text></g><!--reverse link discord_api to archive--><g id="link_discord_api_archive"><path d="M396.5339,186.3734 C400.0139,200.8334 407.66,226.58 424.43,247.8 C437.55,264.4 456.02,278.69 472.74,289.55 " fill="#FFFFFF" fill-opacity="0.00000" id="discord_api-backto-archive" style="stroke:#181818;stroke-width:1;"/><polygon fill="#181818" points="395.13,180.54,393.3469,190.2261,396.2999,185.4012,401.1248,188.3542,395.13,180.54" style="stroke:#181818;stroke-width:1;"/><text fill="#000000" font-family="sans-serif" font-size="13" lengthAdjust="spacing" textLength="78.0001" x="425.43" y="243.8669">&#20445;&#23384;&#23436;&#20102;&#36890;&#30693;</text></g><!--link archive to db--><g id="link_archive_db"><path d="M513.43,336.61 C513.43,361.35 513.43,394.78 513.43,419.21 " fill="#FFFFFF" fill-opacity="0.00000" id="archive-to-db" style="stroke:#181818;stroke-width:1;"/><polygon fill="#181818" points="513.43,425.21,517.43,416.21,513.43,420.21,509.43,416.21,513.43,425.21" style="stroke:#181818;stroke-width:1;"/><text fill="#000000" font-family="sans-serif" font-size="13" lengthAdjust="spacing" textLength="84.5255" x="514.43" y="391.3969">OGP&#20445;&#23384;/&#21462;&#24471;</text></g><!--link user to web_ui--><g id="link_user_web_ui"><path d="M510.43,82.16 C510.43,110.63 510.43,141.47 510.43,157.17 " fill="#FFFFFF" fill-opacity="0.00000" id="user-to-web_ui" style="stroke:#181818;stroke-width:1;"/><polygon fill="#181818" points="510.43,163.17,514.43,154.17,510.43,158.17,506.43,154.17,510.43,163.17" style="stroke:#181818;stroke-width:1;"/></g><!--link web_ui to archive--><g id="link_web_ui_archive"><path d="M510.6,180.69 C511.05,201.4 512.1415,251.9414 512.8215,283.6814 " fill="#FFFFFF" fill-opacity="0.00000" id="web_ui-to-archive" style="stroke:#181818;stroke-width:1;"/><polygon fill="#181818" points="512.95,289.68,516.7563,280.5964,512.8429,284.6811,508.7581,280.7677,512.95,289.68" style="stroke:#181818;stroke-width:1;"/><text fill="#000000" font-family="sans-serif" font-size="13" lengthAdjust="spacing" textLength="52.0001" x="513.43" y="243.8669">&#12450;&#12463;&#12475;&#12473;</text></g><!--link admin to admin_ui--><g id="link_admin_admin_ui"><path d="M617.43,82.16 C617.43,110.63 617.43,141.47 617.43,157.17 " fill="#FFFFFF" fill-opacity="0.00000" id="admin-to-admin_ui" style="stroke:#181818;stroke-width:1;"/><polygon fill="#181818" points="617.43,163.17,621.43,154.17,617.43,158.17,613.43,154.17,617.43,163.17" style="stroke:#181818;stroke-width:1;"/></g><!--link admin_ui to archive--><g id="link_admin_ui_archive"><path d="M613.59,180.6 C606.51,194.63 590.58,224.81 573.43,247.8 C562.39,262.61 552.5901,273.4951 540.8901,285.3751 " fill="#FFFFFF" fill-opacity="0.00000" id="admin_ui-to-archive" style="stroke:#181818;stroke-width:1;"/><polygon fill="#181818" points="536.68,289.65,545.8451,286.0444,540.1884,286.0876,540.1453,280.4309,536.68,289.65" style="stroke:#181818;stroke-width:1;"/><text fill="#000000" font-family="sans-serif" font-size="13" lengthAdjust="spacing" textLength="82.38" x="585.43" y="243.8669">&#12450;&#12463;&#12475;&#12473;/&#31649;&#29702;</text></g><!--SRC=[VL9BJnin4BxxLunouRJYpW4f41L5Ge2ge1wY2Zcx3baXx6ZNATUm5hIqI70AYAg2y3hm59UATt-CioJz5_Yr2qKL5tiyyytCzyru2CRPOfDHGdcCggKmzbaKV0OSGs1jL2r_g5GgnXNMEUUeMepyHlY5o6HVYYqfJamCMoSACCSr71Ceb9nLCDLg2FkSHL3eNRS7tywaE9RYNYQ_rMa0hPX46QH_qUrlhWxQAoQ2WyMG8ZG4PSf9LCS-YL6OcL3uH6eDnXQWE5Csy2NxVWrnidA8apQ7c-6RIZ2R5vbh_HCiQXPPs53I0CLgd55AV1uo6YDN6Bmed6zmRzHE34P0YguKGYPtHlHr_-V1uBY3R3G7PypT_H9mirLrPZzE_ctlz7UF4CgSNgkf8AyaALZlpw_qV3kzME_ThZfy3W_O4jK9DOMRdfYnqE5qevC-RY6arm2U9QC5sijuNbZepIUNMaroWymiB22RIcQyapPiTwm7ECMusYXL9nZ1mEhvRmBmj6Qv_4CcQuhjq_U7zEkjSPV6B7NxiFATLkqnlrFD-bGcXr9qN3j20z2Tq9j-wdl-9-b9hAHxLtdICm00]--></g></svg>